<mxfile host="app.diagrams.net" modified="2023-11-30T07:44:19.472Z" agent="Mozilla/5.0 (Windows NT 10.0; Win64; x64) AppleWebKit/537.36 (KHTML, like Gecko) Chrome/119.0.0.0 Safari/537.36 Edg/119.0.0.0" etag="veOijQRuPv8EfRSKAUZX" version="22.1.5" type="device">
  <diagram id="C5RBs43oDa-KdzZeNtuy" name="Page-1">
    <mxGraphModel dx="946" dy="605" grid="1" gridSize="10" guides="1" tooltips="1" connect="1" arrows="1" fold="1" page="1" pageScale="1" pageWidth="827" pageHeight="1169" math="0" shadow="0">
      <root>
        <mxCell id="WIyWlLk6GJQsqaUBKTNV-0" />
        <mxCell id="WIyWlLk6GJQsqaUBKTNV-1" parent="WIyWlLk6GJQsqaUBKTNV-0" />
        <mxCell id="Qf8ih-xO1cxjT81cs-aT-2" style="edgeStyle=orthogonalEdgeStyle;rounded=0;orthogonalLoop=1;jettySize=auto;html=1;" edge="1" parent="WIyWlLk6GJQsqaUBKTNV-1" source="CPED4Qny7CsInSoTxzIf-0" target="Qf8ih-xO1cxjT81cs-aT-1">
          <mxGeometry relative="1" as="geometry" />
        </mxCell>
        <mxCell id="CPED4Qny7CsInSoTxzIf-0" value="start" style="ellipse;whiteSpace=wrap;html=1;" parent="WIyWlLk6GJQsqaUBKTNV-1" vertex="1">
          <mxGeometry x="160" y="120" width="120" height="80" as="geometry" />
        </mxCell>
        <mxCell id="gQ8_63nGgO7Ae5Gs5ZR_-1" value="" style="edgeStyle=orthogonalEdgeStyle;rounded=0;orthogonalLoop=1;jettySize=auto;html=1;" parent="WIyWlLk6GJQsqaUBKTNV-1" source="CPED4Qny7CsInSoTxzIf-1" target="gQ8_63nGgO7Ae5Gs5ZR_-0" edge="1">
          <mxGeometry relative="1" as="geometry" />
        </mxCell>
        <mxCell id="CPED4Qny7CsInSoTxzIf-1" value="start" style="ellipse;whiteSpace=wrap;html=1;" parent="WIyWlLk6GJQsqaUBKTNV-1" vertex="1">
          <mxGeometry x="170" y="250" width="120" height="80" as="geometry" />
        </mxCell>
        <mxCell id="Qf8ih-xO1cxjT81cs-aT-5" value="" style="edgeStyle=orthogonalEdgeStyle;rounded=0;orthogonalLoop=1;jettySize=auto;html=1;" edge="1" parent="WIyWlLk6GJQsqaUBKTNV-1" source="gQ8_63nGgO7Ae5Gs5ZR_-0" target="Qf8ih-xO1cxjT81cs-aT-4">
          <mxGeometry relative="1" as="geometry" />
        </mxCell>
        <mxCell id="gQ8_63nGgO7Ae5Gs5ZR_-0" value="int n" style="shape=parallelogram;perimeter=parallelogramPerimeter;whiteSpace=wrap;html=1;fixedSize=1;" parent="WIyWlLk6GJQsqaUBKTNV-1" vertex="1">
          <mxGeometry x="170" y="450" width="120" height="60" as="geometry" />
        </mxCell>
        <mxCell id="Qf8ih-xO1cxjT81cs-aT-0" value="&lt;div&gt;char name[100];&lt;/div&gt;&lt;div&gt;&amp;nbsp; &amp;nbsp; int age;&lt;/div&gt;&lt;div&gt;&amp;nbsp; &amp;nbsp; int phone;&lt;/div&gt;&lt;div&gt;&amp;nbsp; &amp;nbsp; char email[100];&lt;/div&gt;" style="rounded=0;whiteSpace=wrap;html=1;" vertex="1" parent="WIyWlLk6GJQsqaUBKTNV-1">
          <mxGeometry x="590" y="130" width="120" height="60" as="geometry" />
        </mxCell>
        <mxCell id="Qf8ih-xO1cxjT81cs-aT-3" style="edgeStyle=orthogonalEdgeStyle;rounded=0;orthogonalLoop=1;jettySize=auto;html=1;" edge="1" parent="WIyWlLk6GJQsqaUBKTNV-1" source="Qf8ih-xO1cxjT81cs-aT-1" target="Qf8ih-xO1cxjT81cs-aT-0">
          <mxGeometry relative="1" as="geometry" />
        </mxCell>
        <mxCell id="Qf8ih-xO1cxjT81cs-aT-1" value="&lt;div&gt;&lt;br&gt;&lt;/div&gt;&lt;div&gt;struct student&lt;/div&gt;" style="shape=parallelogram;perimeter=parallelogramPerimeter;whiteSpace=wrap;html=1;fixedSize=1;" vertex="1" parent="WIyWlLk6GJQsqaUBKTNV-1">
          <mxGeometry x="370" y="130" width="120" height="60" as="geometry" />
        </mxCell>
        <mxCell id="Qf8ih-xO1cxjT81cs-aT-7" value="" style="edgeStyle=orthogonalEdgeStyle;rounded=0;orthogonalLoop=1;jettySize=auto;html=1;" edge="1" parent="WIyWlLk6GJQsqaUBKTNV-1" source="Qf8ih-xO1cxjT81cs-aT-4" target="Qf8ih-xO1cxjT81cs-aT-6">
          <mxGeometry relative="1" as="geometry" />
        </mxCell>
        <mxCell id="Qf8ih-xO1cxjT81cs-aT-4" value="n" style="rounded=0;whiteSpace=wrap;html=1;" vertex="1" parent="WIyWlLk6GJQsqaUBKTNV-1">
          <mxGeometry x="354" y="450" width="120" height="60" as="geometry" />
        </mxCell>
        <mxCell id="Qf8ih-xO1cxjT81cs-aT-9" style="edgeStyle=orthogonalEdgeStyle;rounded=0;orthogonalLoop=1;jettySize=auto;html=1;entryX=0;entryY=0.5;entryDx=0;entryDy=0;" edge="1" parent="WIyWlLk6GJQsqaUBKTNV-1" source="Qf8ih-xO1cxjT81cs-aT-6" target="Qf8ih-xO1cxjT81cs-aT-8">
          <mxGeometry relative="1" as="geometry" />
        </mxCell>
        <mxCell id="Qf8ih-xO1cxjT81cs-aT-6" value="struct student id[n];" style="rounded=0;whiteSpace=wrap;html=1;" vertex="1" parent="WIyWlLk6GJQsqaUBKTNV-1">
          <mxGeometry x="540" y="450" width="120" height="60" as="geometry" />
        </mxCell>
        <mxCell id="Qf8ih-xO1cxjT81cs-aT-11" style="edgeStyle=orthogonalEdgeStyle;rounded=0;orthogonalLoop=1;jettySize=auto;html=1;" edge="1" parent="WIyWlLk6GJQsqaUBKTNV-1" source="Qf8ih-xO1cxjT81cs-aT-8" target="Qf8ih-xO1cxjT81cs-aT-10">
          <mxGeometry relative="1" as="geometry" />
        </mxCell>
        <mxCell id="Qf8ih-xO1cxjT81cs-aT-8" value="int i=0" style="rounded=0;whiteSpace=wrap;html=1;" vertex="1" parent="WIyWlLk6GJQsqaUBKTNV-1">
          <mxGeometry x="700" y="450" width="120" height="60" as="geometry" />
        </mxCell>
        <mxCell id="Qf8ih-xO1cxjT81cs-aT-13" style="edgeStyle=orthogonalEdgeStyle;rounded=0;orthogonalLoop=1;jettySize=auto;html=1;" edge="1" parent="WIyWlLk6GJQsqaUBKTNV-1" source="Qf8ih-xO1cxjT81cs-aT-10" target="Qf8ih-xO1cxjT81cs-aT-12">
          <mxGeometry relative="1" as="geometry" />
        </mxCell>
        <mxCell id="Qf8ih-xO1cxjT81cs-aT-14" value="true" style="edgeLabel;html=1;align=center;verticalAlign=middle;resizable=0;points=[];" vertex="1" connectable="0" parent="Qf8ih-xO1cxjT81cs-aT-13">
          <mxGeometry x="0.0125" relative="1" as="geometry">
            <mxPoint y="1" as="offset" />
          </mxGeometry>
        </mxCell>
        <mxCell id="Qf8ih-xO1cxjT81cs-aT-20" style="edgeStyle=orthogonalEdgeStyle;rounded=0;orthogonalLoop=1;jettySize=auto;html=1;entryX=1;entryY=0.5;entryDx=0;entryDy=0;" edge="1" parent="WIyWlLk6GJQsqaUBKTNV-1" source="Qf8ih-xO1cxjT81cs-aT-10" target="Qf8ih-xO1cxjT81cs-aT-19">
          <mxGeometry relative="1" as="geometry">
            <Array as="points">
              <mxPoint x="960" y="600" />
            </Array>
          </mxGeometry>
        </mxCell>
        <mxCell id="Qf8ih-xO1cxjT81cs-aT-21" value="false" style="edgeLabel;html=1;align=center;verticalAlign=middle;resizable=0;points=[];" vertex="1" connectable="0" parent="Qf8ih-xO1cxjT81cs-aT-20">
          <mxGeometry x="0.0737" relative="1" as="geometry">
            <mxPoint as="offset" />
          </mxGeometry>
        </mxCell>
        <mxCell id="Qf8ih-xO1cxjT81cs-aT-10" value="i&amp;lt;n" style="rhombus;whiteSpace=wrap;html=1;" vertex="1" parent="WIyWlLk6GJQsqaUBKTNV-1">
          <mxGeometry x="920" y="440" width="80" height="80" as="geometry" />
        </mxCell>
        <mxCell id="Qf8ih-xO1cxjT81cs-aT-15" style="edgeStyle=orthogonalEdgeStyle;rounded=0;orthogonalLoop=1;jettySize=auto;html=1;" edge="1" parent="WIyWlLk6GJQsqaUBKTNV-1" source="Qf8ih-xO1cxjT81cs-aT-12">
          <mxGeometry relative="1" as="geometry">
            <mxPoint x="860" y="480" as="targetPoint" />
            <Array as="points">
              <mxPoint x="1150" y="330" />
              <mxPoint x="860" y="330" />
            </Array>
          </mxGeometry>
        </mxCell>
        <mxCell id="Qf8ih-xO1cxjT81cs-aT-12" value="id[i].name&lt;br&gt;id[i].age&lt;br&gt;id[i].phone&lt;br&gt;id[i].email" style="rounded=0;whiteSpace=wrap;html=1;" vertex="1" parent="WIyWlLk6GJQsqaUBKTNV-1">
          <mxGeometry x="1090" y="450" width="120" height="60" as="geometry" />
        </mxCell>
        <mxCell id="Qf8ih-xO1cxjT81cs-aT-24" style="edgeStyle=orthogonalEdgeStyle;rounded=0;orthogonalLoop=1;jettySize=auto;html=1;" edge="1" parent="WIyWlLk6GJQsqaUBKTNV-1" source="Qf8ih-xO1cxjT81cs-aT-19" target="Qf8ih-xO1cxjT81cs-aT-23">
          <mxGeometry relative="1" as="geometry" />
        </mxCell>
        <mxCell id="Qf8ih-xO1cxjT81cs-aT-19" value="id[i].name, id[i].age, id[i].phone,id[i].email" style="rounded=0;whiteSpace=wrap;html=1;shape=parallelogram;perimeter=parallelogramPerimeter;fixedSize=1;" vertex="1" parent="WIyWlLk6GJQsqaUBKTNV-1">
          <mxGeometry x="120" y="550" width="170" height="90" as="geometry" />
        </mxCell>
        <mxCell id="Qf8ih-xO1cxjT81cs-aT-23" value="end" style="ellipse;whiteSpace=wrap;html=1;" vertex="1" parent="WIyWlLk6GJQsqaUBKTNV-1">
          <mxGeometry x="145" y="690" width="120" height="80" as="geometry" />
        </mxCell>
      </root>
    </mxGraphModel>
  </diagram>
</mxfile>
